<svg width="247" height="220" viewBox="0 0 247 220" fill="none" xmlns="http://www.w3.org/2000/svg">
<path d="M193.049 138.089C194.905 134.728 196.494 131.232 197.802 127.636C200.724 119.603 202.253 111.053 202.253 102.364C202.253 100.071 202.149 97.8018 201.943 95.5615C198.166 103.337 193.122 110.385 187.078 116.432C173.13 130.388 153.856 139.026 132.568 139.038V135.046C152.75 135.035 171.022 126.845 184.245 113.615C190.406 107.45 195.47 100.19 199.123 92.1519C198.783 91.5174 198.59 90.795 198.59 90.029C198.59 88.7839 199.095 87.6561 199.911 86.8418C200.096 86.6581 200.296 86.4896 200.51 86.34C197.42 72.3576 190.373 59.8637 180.602 50.0939C167.227 36.7175 148.745 28.4428 128.332 28.4428C125.045 28.4428 121.781 28.6596 118.567 29.0867C116.72 29.3319 114.875 29.651 113.038 30.0402C103.806 40.1963 97.4064 53.0642 95.1935 67.4831L92.5612 66.0079C92.9371 63.5612 90.3977 62.3018 90.9876 59.9441C91.1201 59.413 90.5813 58.2549 90.7243 57.7285C94.9294 42.3248 103.644 28.9456 115.274 18.9656C129.065 7.12974 146.954 0.0717773 166.279 0.0717773C187.908 0.0717773 207.49 8.83978 221.665 23.0153C226.684 28.0337 231.024 33.7301 234.537 39.9567C235.058 39.88 235.591 39.8402 236.133 39.8402C239.13 39.8402 241.847 41.0579 243.815 43.0255C245.782 44.9893 247 47.7068 247 50.7074C247 53.709 245.782 56.4265 243.817 58.3922C243.363 58.8448 242.869 59.2586 242.342 59.626C243.822 65.6414 244.608 71.9305 244.608 78.4024C244.608 100.03 235.84 119.614 221.665 133.788C210.813 144.641 196.793 152.324 181.11 155.33L178.248 155.823C174.346 156.421 170.348 156.732 166.279 156.732C164.127 156.732 161.957 156.641 159.78 156.459C157.65 156.282 155.493 156.011 153.323 155.647L154.376 149.333C156.31 149.657 158.291 149.905 160.307 150.072C162.273 150.236 164.267 150.318 166.279 150.318C170.588 150.318 174.809 149.938 178.91 149.212C184.13 146.075 188.867 142.328 193.049 138.089ZM204.022 92.4729C204.371 92.3403 204.686 92.1358 204.944 91.8773C205.417 91.4067 205.709 90.7514 205.709 90.029C205.709 89.351 205.452 88.7327 205.031 88.2687C204.661 89.2866 204.27 90.2932 203.859 91.2902C203.916 91.6832 203.971 92.078 204.022 92.4729ZM205.701 86.3504C205.909 86.4981 206.103 86.6619 206.283 86.8418C207.097 87.6609 207.603 88.7886 207.603 90.029C207.603 91.2694 207.097 92.3971 206.283 93.2124C205.728 93.7691 205.028 94.1819 204.245 94.3884C204.517 97.0102 204.658 99.67 204.658 102.364C204.658 111.325 203.078 120.151 200.057 128.454C199.71 129.41 199.341 130.36 198.956 131.301C200.606 129.146 202.133 126.9 203.529 124.575C210.115 113.6 213.775 100.855 213.775 87.5595C213.775 79.1087 212.316 70.9988 209.639 63.4665C209.481 71.4505 208.11 79.1371 205.701 86.3504ZM200.675 46.1634C200.895 47.1188 201.383 47.9729 202.05 48.6423C202.249 48.8412 202.465 49.023 202.694 49.1877C202.047 48.1623 201.372 47.1529 200.675 46.1634ZM209.657 48.3053C210.406 47.4086 210.857 46.2524 210.857 44.9931C210.857 43.569 210.28 42.2784 209.347 41.3458C208.578 40.5769 207.566 40.0495 206.437 39.8876C206.973 41.6857 207.445 43.5056 207.85 45.3434C208.474 46.3159 209.075 47.3044 209.657 48.3053ZM205.828 37.9427C207.724 37.9768 209.439 38.7599 210.686 40.0069C211.961 41.2823 212.751 43.0454 212.751 44.9931C212.751 46.9389 211.961 48.7039 210.686 49.9793L210.631 50.0333C216.724 61.177 220.189 73.9644 220.189 87.5595C220.189 102.013 216.198 115.888 209.015 127.857C205.551 133.628 201.344 138.955 196.482 143.686C204.205 140.107 211.187 135.199 217.131 129.255C230.144 116.243 238.194 98.262 238.194 78.4024C238.194 72.6076 237.508 66.9727 236.213 61.5746L236.133 61.5756C233.136 61.5756 230.419 60.3579 228.451 58.3903C226.483 56.4265 225.266 53.709 225.266 50.7074C225.266 47.7068 226.483 44.9893 228.45 43.0246L228.745 42.7415C225.555 37.1663 221.641 32.0589 217.131 27.5489C209.565 19.9816 200.317 14.0939 189.997 10.4902C195.141 16.2377 199.366 22.6934 202.561 29.6216C203.809 32.3278 204.9 35.1059 205.828 37.9427ZM204.331 51.9109C202.935 51.6363 201.686 50.947 200.717 49.9793C199.439 48.7001 198.648 46.937 198.648 44.9931C198.648 44.5187 198.697 44.0547 198.786 43.6069C196.908 41.1782 194.879 38.8726 192.711 36.7061C179.7 23.6933 161.719 15.643 141.858 15.643C139.558 15.643 137.347 15.7415 135.237 15.9356C133.241 16.1202 131.238 16.392 129.234 16.749C125.77 18.8321 122.491 21.2002 119.432 23.8249C118.222 24.8636 117.047 25.9421 115.908 27.0594C116.688 26.9306 117.471 26.8142 118.256 26.71C121.611 26.264 124.979 26.0377 128.332 26.0377C149.408 26.0377 168.492 34.5813 182.303 48.3933C191.891 57.9803 198.939 70.1097 202.353 83.6812C204.492 76.8069 205.645 69.4971 205.645 61.9184C205.645 59.0456 205.476 56.1927 205.145 53.3719C204.88 52.8815 204.608 52.3938 204.331 51.9109ZM235.522 41.7548C238.174 46.7552 240.301 52.0776 241.827 57.647C242.054 57.4615 242.271 57.2645 242.478 57.0571C244.101 55.4304 245.106 53.1854 245.106 50.7074C245.106 48.2304 244.101 45.9854 242.478 44.3625C240.858 42.7377 238.613 41.734 236.133 41.734C235.927 41.734 235.724 41.7406 235.522 41.7548ZM229.693 44.4553C228.126 46.0735 227.159 48.2787 227.159 50.7074C227.159 53.1854 228.165 55.4304 229.788 57.0534C231.32 58.5901 233.411 59.5711 235.731 59.6733C234.293 54.3292 232.255 49.2303 229.693 44.4553ZM146.153 9.34634C166.071 10.4229 184.015 18.9419 197.245 32.1725C198.528 33.4555 199.768 34.784 200.959 36.1531C200.34 34.5094 199.663 32.8902 198.929 31.2976C194.954 22.6764 189.298 14.8259 182.199 8.25557C177.078 7.09756 171.75 6.48586 166.279 6.48586C159.316 6.48586 152.559 7.48102 146.153 9.34634Z" fill="#7194AC"/>
<path d="M25.6668 101.799H34.2312C37.0775 101.799 39.0925 101.377 40.2969 100.542C41.4947 99.7107 42.1006 98.3377 42.1006 96.4269C42.1006 94.5161 41.4833 93.1678 40.2571 92.3516C39.0413 91.5411 36.9677 91.1358 34.0712 91.1358H25.6668V101.799ZM74.8472 37.5232C82.0538 37.5232 87.895 43.3644 87.895 50.5729C87.895 54.3443 86.2948 57.7417 83.7364 60.123L83.6871 60.1732C81.4392 62.422 78.325 63.8139 74.8812 63.8139C71.8484 63.8139 69.0694 62.7307 66.9096 60.9298C63.8019 58.5446 61.7974 54.7931 61.7974 50.5729C61.7974 43.3644 67.6387 37.5232 74.8472 37.5232ZM25.6668 80.6341H33.2957C35.8475 80.6341 37.6523 80.2582 38.6938 79.4979C39.7344 78.7375 40.2571 77.4678 40.2571 75.664C40.2571 73.7532 39.6956 72.4569 38.5736 71.7487C37.4515 71.0404 34.8562 70.6929 30.7969 70.6929H25.6668V80.6341ZM6.95575 115.267L4.86792 107.448V57.6252H31.3452C36.4223 57.6252 40.1388 57.7549 42.4624 58.0134C44.786 58.2729 46.7839 58.6952 48.4475 59.3087C51.3781 60.3901 53.6146 62.1115 55.1684 64.4266C56.725 66.7445 57.4939 69.5709 57.4939 72.884C57.4939 75.4898 56.921 77.7641 55.7564 79.7119C54.5984 81.6491 52.8438 83.2531 50.5193 84.4954C53.5786 85.591 55.8426 87.2328 57.3064 89.4258C58.7656 91.6121 59.4974 94.4631 59.4974 97.9637C59.4974 101.384 58.7854 104.35 57.3595 106.876C55.9429 109.385 53.8674 111.319 51.1603 112.688C49.3281 113.614 47.2298 114.294 44.8939 114.679C42.5438 115.065 38.6502 115.267 33.2162 115.267H6.95575ZM64.9959 115.267V63.5071C67.6917 65.7039 71.1335 67.0219 74.8812 67.0219C79.0314 67.0219 82.8094 65.4009 85.6178 62.7601V106.378L82.9296 115.267H64.9959ZM106.284 115.267V72.777H90.5765V57.6252H141.398V72.777H124.803V115.267H106.284Z" fill="#234857"/>
<path d="M23.8099 198.32H35.4346L33.7947 192.622C34.9196 193.131 35.9365 193.837 36.7981 194.698C38.6313 196.527 39.7647 199.064 39.7647 201.869C39.7647 204.671 38.6294 207.208 36.7953 209.048C36.2764 209.566 35.7007 210.029 35.0786 210.426H24.1754C23.5505 210.028 22.972 209.563 22.4512 209.042C20.6171 207.208 19.4818 204.671 19.4818 201.869C19.4818 199.064 20.6152 196.527 22.4512 194.698C23.3223 193.827 24.3525 193.114 25.4935 192.604L23.8099 198.32ZM32.7181 188.881L29.689 178.359L26.5947 188.866C24.1253 189.44 21.9181 190.699 20.1872 192.434C17.7699 194.852 16.2738 198.19 16.2738 201.869C16.2738 205.554 17.7689 208.893 20.1844 211.309L18.212 218.042H0L20.2829 160.4H39.0422L59.3251 218.042H40.9662L39.0545 211.316L39.0621 211.309C41.4776 208.893 42.9726 205.554 42.9726 201.869C42.9726 198.19 41.4766 194.852 39.0621 192.431C37.3445 190.713 35.161 189.462 32.7181 188.881ZM80.0397 185.173H88.4441C91.3974 185.173 93.4265 184.766 94.5505 183.971C95.6678 183.179 96.234 181.792 96.234 179.802C96.234 177.757 95.6678 176.344 94.5505 175.552C93.4265 174.757 91.2345 174.35 87.9763 174.35H80.0397V185.173ZM61.7614 218.042V160.4H89.3399C97.9848 160.4 104.156 161.701 107.845 164.276C111.543 166.856 113.39 171.089 113.39 176.995C113.39 180.51 112.627 183.437 111.119 185.76C109.609 188.084 107.271 189.916 104.104 191.279C107.324 191.947 109.66 193.301 111.119 195.288C112.583 197.28 113.317 200.209 113.471 204.066L113.791 212.096C113.793 212.147 113.815 212.218 113.817 212.283C113.906 214.58 114.459 215.784 115.474 215.891V218.042H96.7822C96.4347 216.652 96.18 215.449 96.0067 214.421C95.8335 213.393 95.753 212.591 95.753 212.016V206.257C95.753 203.291 95.1602 201.195 93.989 199.977C92.8253 198.766 90.7933 198.16 87.8968 198.16H80.0397V218.042H61.7614ZM134.102 218.042V175.552H116.782V160.4H170.163V175.552H152.621V218.042H134.102ZM170.61 200.084H188.647C189.142 202.168 190.041 203.665 191.346 204.574C192.641 205.477 194.593 205.936 197.172 205.936C199.323 205.936 201.037 205.561 202.262 204.827C203.503 204.084 204.119 203.063 204.119 201.754C204.119 199.67 201.528 197.975 196.344 196.677C195.307 196.417 194.493 196.227 193.952 196.089C189.703 195.004 186.318 193.99 183.797 193.096C181.287 192.206 179.437 191.364 178.306 190.57C176.076 189.004 174.414 187.067 173.308 184.852C172.202 182.637 171.651 180.095 171.651 177.25C171.651 171.531 173.801 167.034 178.105 163.767C182.401 160.505 188.326 158.878 195.863 158.878C203.277 158.878 209.106 160.444 213.352 163.568C217.599 166.691 220.007 171.17 220.554 176.995H202.997C202.717 175.298 201.951 174.028 200.752 173.201C199.538 172.363 197.8 171.944 195.555 171.944C193.578 171.944 192.103 172.265 191.132 172.921C190.171 173.569 189.689 174.564 189.689 175.9C189.689 177.797 192.22 179.388 197.279 180.67C197.733 180.784 198.071 180.899 198.294 180.95C199.027 181.121 200.145 181.392 201.635 181.765C208.344 183.444 212.724 185.007 214.795 186.389C217.342 188.088 219.218 190.01 220.394 192.174C221.57 194.339 222.158 196.904 222.158 199.844C222.158 206.217 219.921 211.106 215.477 214.515C211.028 217.928 204.654 219.645 196.344 219.645C188.687 219.645 182.622 217.928 178.145 214.515C173.675 211.106 171.157 206.297 170.61 200.084Z" fill="#234857"/>
<path d="M20.5093 165.238L6.61304 107.596H24.6509L30.9173 144.808L38.1996 107.596H53.5114L60.486 144.808L66.5527 107.596H84.136L70.4272 165.238H52.0684L45.5085 130.686L39.1749 165.238H20.5093ZM90.6164 165.238V107.596H109.456V165.238H90.6164ZM118.021 165.238V151.382L144.743 122.507H118.902V107.596H167.484V121.332L140.467 150.407H168.927V165.238H118.021Z" fill="#D5DFE6"/>
<path fill-rule="evenodd" clip-rule="evenodd" d="M203.097 87.3153C201.598 87.3153 200.383 88.5301 200.383 90.029C200.383 91.5279 201.598 92.7427 203.097 92.7427C204.594 92.7427 205.809 91.5279 205.809 90.029C205.809 88.5301 204.594 87.3153 203.097 87.3153ZM205.699 39.8459C202.856 39.8459 200.552 42.1497 200.552 44.9931C200.552 47.8366 202.856 50.1403 205.699 50.1403C208.543 50.1403 210.847 47.8366 210.847 44.9931C210.847 42.1497 208.543 39.8459 205.699 39.8459ZM236.133 41.645C231.128 41.645 227.07 45.7033 227.07 50.7075C227.07 55.7126 231.128 59.7709 236.133 59.7709C241.138 59.7709 245.195 55.7126 245.195 50.7075C245.195 45.7033 241.138 41.645 236.133 41.645Z" fill="#E68200"/>
<path d="M19.3447 165.515L5.09253 106.394H25.6661L31.0055 138.105L37.2112 106.394H54.5067L60.4038 137.86L65.5339 106.394H85.6577L71.377 166.44H51.0762L45.5285 137.222L40.173 166.44H19.5682L19.3447 165.515ZM8.13481 108.799L21.4506 164.035H38.177L45.4888 124.148L53.0608 164.035H69.4777L82.6145 108.799H67.5716L60.5686 151.756L52.5164 108.799H39.1883L30.8303 151.511L23.6369 108.799H8.13481ZM89.414 165.238V106.394H110.659V166.44H89.414V165.238ZM91.819 108.799V164.035H108.254V108.799H91.819ZM116.818 165.238V150.919L142 123.71H117.7V106.394H168.687V121.8L143.223 149.204H170.13V166.44H116.818V165.238ZM119.223 151.844V164.035H167.725V151.609H137.711L166.282 120.864V108.799H120.105V121.305H147.486L119.223 151.844Z" fill="#234857"/>
<path d="M99.8085 115.97C106.165 115.97 111.318 110.818 111.318 104.461C111.318 98.1048 106.165 92.952 99.8085 92.952C93.4521 92.952 88.2993 98.1048 88.2993 104.461C88.2993 110.818 93.4521 115.97 99.8085 115.97Z" fill="#D5DFE6"/>
<path d="M99.8082 91.3479C103.421 91.3479 106.698 92.8165 109.073 95.1894C111.452 97.5707 112.92 100.848 112.92 104.461C112.92 108.073 111.452 111.35 109.079 113.726C106.698 116.105 103.421 117.573 99.8082 117.573C96.195 117.573 92.9179 116.105 90.5422 113.732C88.1636 111.351 86.6951 108.074 86.6951 104.461C86.6951 100.848 88.1636 97.5707 90.5365 95.195C92.9179 92.8165 96.195 91.3479 99.8082 91.3479ZM106.815 97.4533C105.025 95.6628 102.548 94.5559 99.8082 94.5559C97.068 94.5559 94.591 95.6618 92.8033 97.4505C91.009 99.2439 89.903 101.721 89.903 104.461C89.903 107.201 91.0099 109.678 92.7976 111.465C94.591 113.259 97.068 114.365 99.8082 114.365C102.548 114.365 105.025 113.258 106.812 111.471C108.606 109.678 109.712 107.2 109.712 104.461C109.712 101.721 108.607 99.2438 106.815 97.4533Z" fill="#234857"/>
<path d="M29.6235 212.055C35.2482 212.055 39.808 207.495 39.808 201.87C39.808 196.245 35.2482 191.686 29.6235 191.686C23.9987 191.686 19.439 196.245 19.439 201.87C19.439 207.495 23.9987 212.055 29.6235 212.055Z" fill="#E68200"/>
<path d="M74.9429 63.867C82.3205 63.867 88.3013 57.8862 88.3013 50.5086C88.3013 43.1309 82.3205 37.1501 74.9429 37.1501C67.5652 37.1501 61.5845 43.1309 61.5845 50.5086C61.5845 57.8862 67.5652 63.867 74.9429 63.867Z" fill="#E68200"/>
</svg>
